<svg width="22" height="22" viewBox="0 0 32 32" fill="none" xmlns="http://www.w3.org/2000/svg">
    <path d="M21.3739 20.3079C21.246 19.8017 21.1814 19.2815 21.1814 18.7594V12.2481C21.1814 9.78892 19.1878 7.79535 16.7286 7.79535H15.4965C13.0465 7.79535 11.0605 9.78142 11.0605 12.2314V18.7289C11.0605 19.2477 10.9966 19.7645 10.8704 20.2678L10.5083 21.7116H21.7283L21.3739 20.3079ZM21.1814 25.507C21.1814 26.441 19.7654 28 18.0186 28C16.2718 28 14.8558 26.4509 14.8558 25.507H21.1814ZM16.1209 4C16.8196 4 17.3861 4.56641 17.3861 5.26512L17.387 5.29574C20.9348 5.6275 23.7116 8.61353 23.7116 12.2481V18.7594C23.7116 19.0727 23.7504 19.3848 23.8271 19.6885L24.3379 21.7116H24.9768C25.6755 21.7116 26.2419 22.278 26.2419 22.9768C26.2419 23.6755 25.6755 24.2419 24.9768 24.2419H7.26512C6.56641 24.2419 6 23.6755 6 22.9768C6 22.278 6.56641 21.7116 7.26512 21.7116H7.89894L8.41622 19.6522C8.49194 19.3503 8.53023 19.0402 8.53023 18.7289V12.2314C8.53023 8.5998 11.3091 5.61726 14.8564 5.29413L14.8558 5.26512C14.8558 4.56641 15.4222 4 16.1209 4Z" fill="white"/>
</svg>
