<svg width="22" height="22" viewBox="0 0 32 32" fill="none" xmlns="http://www.w3.org/2000/svg">
    <path d="M25.3333 7C26.8061 7 28 8.19391 28 9.66667V23C28 24.4728 26.8061 25.6667 25.3333 25.6667H6.66667C5.19391 25.6667 4 24.4728 4 23V9.66667C4 8.19391 5.19391 7 6.66667 7H25.3333ZM6.66667 12.624V23H25.3333V12.6733L18.6136 18.5202C17.1014 19.8358 14.849 19.8291 13.3447 18.5045L6.66667 12.624ZM24.7253 9.66667H7.34267L15.107 16.5031C15.6084 16.9446 16.3592 16.9469 16.8632 16.5083L24.7253 9.66667Z" fill="#F2F2F2"/>
</svg>
