<svg width="22" height="22" viewBox="0 0 32 32" fill="none" xmlns="http://www.w3.org/2000/svg">
    <path d="M12 5C14.1574 5 15.6107 6.03866 16.2311 7.63672C16.8394 7.4081 17.524 7.28571 18.2701 7.28571C21.3611 7.28571 23.4286 9.40375 23.4286 12.3968C23.4286 14.0438 23.1318 15.6204 22.5287 16.8948L23.6895 17.3592C26.2929 18.4006 28 20.922 28 23.7259V25.5714C28 26.2026 27.4883 26.7143 26.8571 26.7143H9.71429C9.0831 26.7143 8.57143 26.2026 8.57143 25.5714V23.7259C8.57143 23.578 8.57618 23.4308 8.58556 23.2847L5.14286 23.2857C4.51167 23.2857 4 22.774 4 22.1429V21.1055C4 18.5067 5.46913 16.1312 7.79428 14.9704L8.49063 14.623C7.7265 13.3907 7.42857 11.6209 7.42857 9.57143C7.42857 6.90879 9.05411 5 12 5ZM18.2585 19.8361C17.1078 19.8361 16.16 19.4593 15.4064 18.8121L13.7308 19.4814C11.9952 20.1757 10.8571 21.8566 10.8571 23.7259V24.4286H25.7143V23.7259C25.7143 21.8566 24.5762 20.1757 22.8406 19.4814L21.1288 18.7966C20.3663 19.4521 19.4111 19.8361 18.2585 19.8361ZM12 16.459C11.409 16.459 10.8863 16.3735 10.426 16.212L8.81523 17.0154C7.29664 17.7735 6.32577 19.3089 6.28693 21L9.13606 21.0006C9.84148 19.3729 11.1673 18.045 12.8819 17.3592L14.0162 16.9051C13.9262 16.7108 13.8433 16.5094 13.7674 16.3015L13.5814 16.2079C13.1193 16.372 12.5942 16.459 12 16.459ZM18.2701 9.57143C16.457 9.57143 15.4286 10.6341 15.4286 12.3968C15.4286 15.2535 16.5023 17.5504 18.2585 17.5504C20.0252 17.5504 21.1429 15.2087 21.1429 12.3968C21.1429 10.6539 20.0862 9.57143 18.2701 9.57143ZM12 7.28571C10.4052 7.28571 9.71429 8.09702 9.71429 9.57143C9.71429 12.3615 10.4073 14.1733 12 14.1733C12.4812 14.1733 12.8807 14.0055 13.2037 13.6944C13.1628 13.27 13.1429 12.8365 13.1429 12.3968C13.1429 11.0679 13.5398 9.91577 14.2496 9.04354C14.0921 7.91551 13.3821 7.28571 12 7.28571Z" fill="white"/>
</svg>
