<svg width="22" height="22" viewBox="0 0 32 32" fill="none" xmlns="http://www.w3.org/2000/svg">
    <path d="M8.17176 26.4276C7.45109 26.4276 6.86687 25.8434 6.86687 25.1227L6.86684 17.2925L4.65245 17.2934C4.29211 17.2934 4 17.0012 4 16.6409C4 16.4559 4.0785 16.2797 4.21598 16.1559L8.17173 12.5936L8.17176 8.81157C8.17176 8.45123 8.46387 8.15912 8.82421 8.15912H10.1291C10.4894 8.15912 10.7815 8.45123 10.7815 8.81157L10.7815 10.2461L15.1282 6.33497C15.6244 5.88834 16.3778 5.88834 16.874 6.33497L27.784 16.154C28.0518 16.395 28.0736 16.8075 27.8325 17.0754C27.7086 17.2131 27.532 17.2916 27.3468 17.2914L25.1353 17.2873L25.1353 25.1227C25.1353 25.8434 24.5511 26.4276 23.8304 26.4276H8.17176ZM16.0011 9.06044L9.47662 14.9307L9.47665 23.8178L14.6962 23.817L14.6962 19.2507C14.6962 18.8904 14.9883 18.5982 15.3487 18.5982H16.6535C17.0139 18.5982 17.306 18.8904 17.306 19.2507L17.306 23.817L22.5256 23.8178L22.5255 14.9333L16.0011 9.06044Z" fill="white"/>
</svg>
