<svg width="22" height="22" viewBox="0 0 32 32" fill="none" xmlns="http://www.w3.org/2000/svg">
    <path d="M16.3684 4C19.8565 4 22.6842 6.82768 22.6842 10.3158C22.6842 12.7874 22.5512 14.1695 21.9475 15.6464C21.7313 16.1752 21.4631 16.6515 21.1428 17.0707L22.8217 17.7008C25.7784 18.8108 27.7368 21.6379 27.7368 24.7961V26.7368C27.7368 27.4345 27.1713 28 26.4737 28H6.26316C5.56554 28 5 27.4345 5 26.7368V24.7997C5 21.6394 6.96098 18.8108 9.92047 17.7023L11.5968 17.0744C11.2753 16.6543 11.0062 16.1768 10.7894 15.6464C10.1857 14.1695 10.0526 12.7874 10.0526 10.3158C10.0526 6.82768 12.8803 4 16.3684 4ZM16.3684 19.1915C15.519 19.1915 14.7564 19.0723 14.0805 18.8436L10.8066 20.0681C8.83364 20.8071 7.52632 22.6928 7.52632 24.7997V25.4737H25.2105V24.7961C25.2105 22.6907 23.9049 20.8059 21.9338 20.0659L18.6652 18.8406C17.9871 19.0712 17.2215 19.1915 16.3684 19.1915ZM16.3684 6.52632C14.2756 6.52632 12.5789 8.22292 12.5789 10.3158C12.5789 14.8452 13.3229 16.6652 16.3684 16.6652C19.414 16.6652 20.1579 14.8452 20.1579 10.3158C20.1579 8.22292 18.4613 6.52632 16.3684 6.52632Z" fill="white"/>
</svg>
