<svg width="22" height="22" viewBox="0 0 32 32" fill="none" xmlns="http://www.w3.org/2000/svg">
    <path d="M16.7031 7C17.4799 7 18.1695 7.50723 18.4151 8.25923L18.792 9.41311C19.0247 9.51279 19.2519 9.62485 19.4728 9.74876L20.565 9.33056C21.2923 9.05212 22.1126 9.27982 22.6014 9.89585L23.4863 11.0111C23.9752 11.6271 24.0229 12.4932 23.6048 13.1613L22.9492 14.2089C23.0152 14.4486 23.0694 14.692 23.1114 14.9384L24.1364 15.5778C24.7992 15.9912 25.1284 16.791 24.9536 17.5634L24.6373 18.9616C24.4626 19.734 23.8231 20.3056 23.0499 20.3807L21.8705 20.4952C21.7239 20.7038 21.5668 20.9045 21.3999 21.0965L21.5548 22.2868C21.657 23.0726 21.2551 23.837 20.557 24.1845L19.2931 24.8136C18.5949 25.1611 17.7572 25.0137 17.2134 24.4476L16.3654 23.565C16.244 23.5712 16.1222 23.5743 16 23.5743C15.8778 23.5743 15.756 23.5712 15.6346 23.565L14.7866 24.4476C14.2428 25.0137 13.4051 25.1611 12.7069 24.8136L11.443 24.1845C10.7449 23.837 10.343 23.0726 10.4452 22.2868L10.6001 21.0965C10.4332 20.9045 10.2761 20.7038 10.1295 20.4952L8.95011 20.3807C8.17686 20.3056 7.53743 19.734 7.3627 18.9616L7.04637 17.5634C6.87164 16.791 7.20081 15.9912 7.86356 15.5778L8.88859 14.9384C8.93057 14.692 8.98476 14.4486 9.05085 14.2089L8.39522 13.1613C7.97713 12.4932 8.02484 11.6271 8.51367 11.0111L9.39862 9.89585C9.88745 9.27982 10.7077 9.05212 11.435 9.33056L12.5272 9.74876C12.7481 9.62485 12.9753 9.51279 13.208 9.41311L13.5849 8.25923C13.8305 7.50723 14.5201 7 15.2969 7H16.7031ZM16.7031 8.84159H15.2969L14.6448 10.8381L14.225 10.9867C13.8294 11.1268 13.4516 11.3134 13.0987 11.5425L12.7189 11.7891L10.8011 11.0548L9.9161 12.17L11.0345 13.9572L10.8894 14.3799C10.7546 14.7722 10.6636 15.1802 10.6188 15.5982L10.5705 16.0477L8.80471 17.1491L9.12104 18.5474L11.1693 18.7463L11.4055 19.1318C11.6272 19.4937 11.8896 19.8287 12.1867 20.1296L12.5045 20.4515L12.2341 22.5293L13.498 23.1584L14.9495 21.6475L15.3867 21.6977C15.5892 21.721 15.7938 21.7327 16 21.7327C16.2062 21.7327 16.4108 21.721 16.6133 21.6977L17.0505 21.6475L18.502 23.1584L19.7659 22.5293L19.4955 20.4515L19.8133 20.1296C20.1104 19.8287 20.3728 19.4937 20.5945 19.1318L20.8307 18.7463L22.879 18.5474L23.1953 17.1491L21.4295 16.0477L21.3812 15.5982C21.3364 15.1802 21.2454 14.7722 21.1106 14.3799L20.9655 13.9572L22.0839 12.17L21.1989 11.0548L19.2811 11.7891L18.9013 11.5425C18.5484 11.3134 18.1706 11.1268 17.775 10.9867L17.3552 10.8381L16.7031 8.84159ZM16 20.3633C13.7512 20.3633 11.9282 18.5029 11.9282 16.208C11.9282 13.913 13.7512 12.0526 16 12.0526C18.2488 12.0526 20.0718 13.913 20.0718 16.208C20.0718 18.5029 18.2488 20.3633 16 20.3633ZM16 18.5217C17.2522 18.5217 18.2672 17.4858 18.2672 16.208C18.2672 14.9301 17.2522 13.8942 16 13.8942C14.7478 13.8942 13.7328 14.9301 13.7328 16.208C13.7328 17.4858 14.7478 18.5217 16 18.5217Z" fill="white"/>
</svg>
