<svg width="24" height="21" viewBox="0 0 24 21" fill="none" xmlns="http://www.w3.org/2000/svg">
    <path
        d="M4.17176 20.4276C3.45109 20.4276 2.86687 19.8434 2.86687 19.1227L2.86684 11.2925L0.652445 11.2934C0.29211 11.2934 0 11.0012 0 10.6409C0 10.4559 0.078503 10.2797 0.215982 10.1559L4.17173 6.59361L4.17176 2.81157C4.17176 2.45123 4.46387 2.15912 4.82421 2.15912H6.1291C6.48943 2.15912 6.78154 2.45123 6.78154 2.81157L6.78151 4.24611L11.1282 0.334973C11.6244 -0.111658 12.3778 -0.111658 12.874 0.334973L23.784 10.154C24.0518 10.395 24.0736 10.8075 23.8325 11.0754C23.7086 11.2131 23.532 11.2916 23.3468 11.2914L21.1353 11.2873L21.1353 19.1227C21.1353 19.8434 20.5511 20.4276 19.8304 20.4276H4.17176ZM12.0011 3.06044L5.47662 8.93067L5.47665 17.8178L10.6962 17.817L10.6962 13.2507C10.6962 12.8904 10.9883 12.5982 11.3487 12.5982H12.6535C13.0139 12.5982 13.306 12.8904 13.306 13.2507L13.306 17.817L18.5256 17.8178L18.5255 8.93328L12.0011 3.06044Z"
        fill="#454545"/>
</svg>
